<svg width="486" height="200" viewBox="0 0 486 200" fill="none" xmlns="http://www.w3.org/2000/svg">
<g clip-path="url(#clip0_0_222)">
<rect x="0.629623" y="69" width="484.615" height="70" fill="#C7A17A"/>
<path d="M28.4276 54V37.422L31.3436 45.036L14.1716 16.2H27.6176L39.2276 35.91H31.3976L43.1156 16.2H55.4276L38.3636 45.036L41.1716 37.422V54H28.4276ZM75.2287 54.864C72.1687 54.864 69.3247 54.378 66.6967 53.406C64.1047 52.434 61.8547 51.066 59.9467 49.302C58.0387 47.502 56.5447 45.396 55.4647 42.984C54.4207 40.572 53.8987 37.944 53.8987 35.1C53.8987 32.22 54.4207 29.592 55.4647 27.216C56.5447 24.804 58.0387 22.716 59.9467 20.952C61.8547 19.152 64.1047 17.766 66.6967 16.794C69.3247 15.822 72.1687 15.336 75.2287 15.336C78.3248 15.336 81.1688 15.822 83.7607 16.794C86.3528 17.766 88.6028 19.152 90.5107 20.952C92.4188 22.716 93.8948 24.804 94.9388 27.216C96.0188 29.592 96.5588 32.22 96.5588 35.1C96.5588 37.944 96.0188 40.572 94.9388 42.984C93.8948 45.396 92.4188 47.502 90.5107 49.302C88.6028 51.066 86.3528 52.434 83.7607 53.406C81.1688 54.378 78.3248 54.864 75.2287 54.864ZM75.2287 44.55C76.4167 44.55 77.5147 44.334 78.5227 43.902C79.5667 43.47 80.4667 42.858 81.2227 42.066C82.0148 41.238 82.6267 40.248 83.0587 39.096C83.4907 37.908 83.7068 36.576 83.7068 35.1C83.7068 33.624 83.4907 32.31 83.0587 31.158C82.6267 29.97 82.0148 28.98 81.2227 28.188C80.4667 27.36 79.5667 26.73 78.5227 26.298C77.5147 25.866 76.4167 25.65 75.2287 25.65C74.0408 25.65 72.9247 25.866 71.8807 26.298C70.8727 26.73 69.9727 27.36 69.1807 28.188C68.4247 28.98 67.8307 29.97 67.3987 31.158C66.9667 32.31 66.7507 33.624 66.7507 35.1C66.7507 36.576 66.9667 37.908 67.3987 39.096C67.8307 40.248 68.4247 41.238 69.1807 42.066C69.9727 42.858 70.8727 43.47 71.8807 43.902C72.9247 44.334 74.0408 44.55 75.2287 44.55ZM119.274 54.864C113.478 54.864 108.96 53.298 105.72 50.166C102.48 47.034 100.86 42.642 100.86 36.99V16.2H113.604V36.612C113.604 39.492 114.126 41.544 115.17 42.768C116.214 43.956 117.618 44.55 119.382 44.55C121.182 44.55 122.586 43.956 123.594 42.768C124.638 41.544 125.16 39.492 125.16 36.612V16.2H137.688V36.99C137.688 42.642 136.068 47.034 132.828 50.166C129.588 53.298 125.07 54.864 119.274 54.864ZM143.53 54V16.2H161.728C165.256 16.2 168.298 16.776 170.854 17.928C173.446 19.08 175.444 20.736 176.848 22.896C178.252 25.02 178.954 27.54 178.954 30.456C178.954 33.372 178.252 35.892 176.848 38.016C175.444 40.104 173.446 41.706 170.854 42.822C168.298 43.938 165.256 44.496 161.728 44.496H150.604L156.274 39.258V54H143.53ZM166.156 54L156.868 40.23H170.368L179.764 54H166.156ZM156.274 40.662L150.604 34.884H160.918C162.682 34.884 163.978 34.488 164.806 33.696C165.67 32.904 166.102 31.824 166.102 30.456C166.102 29.088 165.67 28.008 164.806 27.216C163.978 26.424 162.682 26.028 160.918 26.028H150.604L156.274 20.25V40.662ZM38.2556 194.864C35.2316 194.864 32.4236 194.396 29.8316 193.46C27.2756 192.488 25.0436 191.12 23.1356 189.356C21.2636 187.592 19.8056 185.504 18.7616 183.092C17.7176 180.68 17.1956 178.016 17.1956 175.1C17.1956 172.184 17.7176 169.52 18.7616 167.108C19.8056 164.696 21.2636 162.608 23.1356 160.844C25.0436 159.08 27.2756 157.73 29.8316 156.794C32.4236 155.822 35.2316 155.336 38.2556 155.336C41.9636 155.336 45.2396 155.984 48.0836 157.28C50.9636 158.576 53.3396 160.448 55.2116 162.896L47.1656 170.078C46.0496 168.674 44.8076 167.594 43.4396 166.838C42.1076 166.046 40.5956 165.65 38.9036 165.65C37.5716 165.65 36.3656 165.866 35.2856 166.298C34.2056 166.73 33.2696 167.36 32.4776 168.188C31.7216 169.016 31.1276 170.024 30.6956 171.212C30.2636 172.364 30.0476 173.66 30.0476 175.1C30.0476 176.54 30.2636 177.854 30.6956 179.042C31.1276 180.194 31.7216 181.184 32.4776 182.012C33.2696 182.84 34.2056 183.47 35.2856 183.902C36.3656 184.334 37.5716 184.55 38.9036 184.55C40.5956 184.55 42.1076 184.172 43.4396 183.416C44.8076 182.624 46.0496 181.526 47.1656 180.122L55.2116 187.304C53.3396 189.716 50.9636 191.588 48.0836 192.92C45.2396 194.216 41.9636 194.864 38.2556 194.864ZM77.9182 194.864C74.8582 194.864 72.0142 194.378 69.3862 193.406C66.7942 192.434 64.5442 191.066 62.6362 189.302C60.7282 187.502 59.2342 185.396 58.1542 182.984C57.1102 180.572 56.5882 177.944 56.5882 175.1C56.5882 172.22 57.1102 169.592 58.1542 167.216C59.2342 164.804 60.7282 162.716 62.6362 160.952C64.5442 159.152 66.7942 157.766 69.3862 156.794C72.0142 155.822 74.8582 155.336 77.9182 155.336C81.0142 155.336 83.8582 155.822 86.4502 156.794C89.0422 157.766 91.2922 159.152 93.2002 160.952C95.1082 162.716 96.5842 164.804 97.6282 167.216C98.7082 169.592 99.2482 172.22 99.2482 175.1C99.2482 177.944 98.7082 180.572 97.6282 182.984C96.5842 185.396 95.1082 187.502 93.2002 189.302C91.2922 191.066 89.0422 192.434 86.4502 193.406C83.8582 194.378 81.0142 194.864 77.9182 194.864ZM77.9182 184.55C79.1062 184.55 80.2042 184.334 81.2122 183.902C82.2562 183.47 83.1562 182.858 83.9122 182.066C84.7042 181.238 85.3162 180.248 85.7482 179.096C86.1802 177.908 86.3962 176.576 86.3962 175.1C86.3962 173.624 86.1802 172.31 85.7482 171.158C85.3162 169.97 84.7042 168.98 83.9122 168.188C83.1562 167.36 82.2562 166.73 81.2122 166.298C80.2042 165.866 79.1062 165.65 77.9182 165.65C76.7302 165.65 75.6142 165.866 74.5702 166.298C73.5622 166.73 72.6622 167.36 71.8702 168.188C71.1142 168.98 70.5202 169.97 70.0882 171.158C69.6562 172.31 69.4402 173.624 69.4402 175.1C69.4402 176.576 69.6562 177.908 70.0882 179.096C70.5202 180.248 71.1142 181.238 71.8702 182.066C72.6622 182.858 73.5622 183.47 74.5702 183.902C75.6142 184.334 76.7302 184.55 77.9182 184.55ZM115.754 172.292H132.386V181.904H115.754V172.292ZM116.618 194H103.874V156.2H134.6V165.812H116.618V194ZM150.506 172.292H167.138V181.904H150.506V172.292ZM151.37 194H138.626V156.2H169.352V165.812H151.37V194ZM185.042 170.24H201.89V179.42H185.042V170.24ZM185.906 184.388H204.806V194H173.378V156.2H204.104V165.812H185.906V184.388ZM221.376 170.24H238.224V179.42H221.376V170.24ZM222.24 184.388H241.14V194H209.712V156.2H240.438V165.812H222.24V184.388Z" fill="#415167"/>
<path d="M18.7076 124V86.2H36.9056C40.4336 86.2 43.4756 86.776 46.0316 87.928C48.6236 89.08 50.6216 90.736 52.0256 92.896C53.4296 95.02 54.1316 97.54 54.1316 100.456C54.1316 103.372 53.4296 105.892 52.0256 108.016C50.6216 110.14 48.6236 111.796 46.0316 112.984C43.4756 114.136 40.4336 114.712 36.9056 114.712H25.7816L31.4516 109.258V124H18.7076ZM31.4516 110.662L25.7816 104.884H36.0956C37.8596 104.884 39.1556 104.488 39.9836 103.696C40.8476 102.904 41.2796 101.824 41.2796 100.456C41.2796 99.088 40.8476 98.008 39.9836 97.216C39.1556 96.424 37.8596 96.028 36.0956 96.028H25.7816L31.4516 90.25V110.662ZM69.9751 100.24H86.8231V109.42H69.9751V100.24ZM70.8391 114.388H89.7391V124H58.3111V86.2H89.0371V95.812H70.8391V114.388ZM94.6451 124V86.2H112.843C116.371 86.2 119.413 86.776 121.969 87.928C124.561 89.08 126.559 90.736 127.963 92.896C129.367 95.02 130.069 97.54 130.069 100.456C130.069 103.372 129.367 105.892 127.963 108.016C126.559 110.104 124.561 111.706 121.969 112.822C119.413 113.938 116.371 114.496 112.843 114.496H101.719L107.389 109.258V124H94.6451ZM117.271 124L107.983 110.23H121.483L130.879 124H117.271ZM107.389 110.662L101.719 104.884H112.033C113.797 104.884 115.093 104.488 115.921 103.696C116.785 102.904 117.217 101.824 117.217 100.456C117.217 99.088 116.785 98.008 115.921 97.216C115.093 96.424 113.797 96.028 112.033 96.028H101.719L107.389 90.25V110.662ZM148.975 124.864C145.807 124.864 142.747 124.504 139.795 123.784C136.843 123.064 134.413 122.128 132.505 120.976L136.609 111.688C138.409 112.732 140.407 113.578 142.603 114.226C144.835 114.838 146.995 115.144 149.083 115.144C150.307 115.144 151.261 115.072 151.945 114.928C152.665 114.748 153.187 114.514 153.511 114.226C153.835 113.902 153.997 113.524 153.997 113.092C153.997 112.408 153.619 111.868 152.863 111.472C152.107 111.076 151.099 110.752 149.839 110.5C148.615 110.212 147.265 109.924 145.789 109.636C144.313 109.312 142.819 108.898 141.307 108.394C139.831 107.89 138.463 107.224 137.203 106.396C135.979 105.568 134.989 104.488 134.233 103.156C133.477 101.788 133.099 100.096 133.099 98.08C133.099 95.74 133.747 93.616 135.043 91.708C136.375 89.764 138.337 88.216 140.929 87.064C143.557 85.912 146.815 85.336 150.703 85.336C153.259 85.336 155.779 85.606 158.263 86.146C160.747 86.686 162.979 87.514 164.959 88.63L161.125 97.864C159.253 96.928 157.435 96.226 155.671 95.758C153.943 95.29 152.251 95.056 150.595 95.056C149.371 95.056 148.399 95.164 147.679 95.38C146.959 95.596 146.437 95.884 146.113 96.244C145.825 96.604 145.681 97 145.681 97.432C145.681 98.08 146.059 98.602 146.815 98.998C147.571 99.358 148.561 99.664 149.785 99.916C151.045 100.168 152.413 100.438 153.889 100.726C155.401 101.014 156.895 101.41 158.371 101.914C159.847 102.418 161.197 103.084 162.421 103.912C163.681 104.74 164.689 105.82 165.445 107.152C166.201 108.484 166.579 110.14 166.579 112.12C166.579 114.424 165.913 116.548 164.581 118.492C163.285 120.4 161.341 121.948 158.749 123.136C156.157 124.288 152.899 124.864 148.975 124.864ZM190.19 124.864C187.13 124.864 184.286 124.378 181.658 123.406C179.066 122.434 176.816 121.066 174.908 119.302C173 117.502 171.506 115.396 170.426 112.984C169.382 110.572 168.86 107.944 168.86 105.1C168.86 102.22 169.382 99.592 170.426 97.216C171.506 94.804 173 92.716 174.908 90.952C176.816 89.152 179.066 87.766 181.658 86.794C184.286 85.822 187.13 85.336 190.19 85.336C193.286 85.336 196.13 85.822 198.722 86.794C201.314 87.766 203.564 89.152 205.472 90.952C207.38 92.716 208.856 94.804 209.9 97.216C210.98 99.592 211.52 102.22 211.52 105.1C211.52 107.944 210.98 110.572 209.9 112.984C208.856 115.396 207.38 117.502 205.472 119.302C203.564 121.066 201.314 122.434 198.722 123.406C196.13 124.378 193.286 124.864 190.19 124.864ZM190.19 114.55C191.378 114.55 192.476 114.334 193.484 113.902C194.528 113.47 195.428 112.858 196.184 112.066C196.976 111.238 197.588 110.248 198.02 109.096C198.452 107.908 198.668 106.576 198.668 105.1C198.668 103.624 198.452 102.31 198.02 101.158C197.588 99.97 196.976 98.98 196.184 98.188C195.428 97.36 194.528 96.73 193.484 96.298C192.476 95.866 191.378 95.65 190.19 95.65C189.002 95.65 187.886 95.866 186.842 96.298C185.834 96.73 184.934 97.36 184.142 98.188C183.386 98.98 182.792 99.97 182.36 101.158C181.928 102.31 181.712 103.624 181.712 105.1C181.712 106.576 181.928 107.908 182.36 109.096C182.792 110.248 183.386 111.238 184.142 112.066C184.934 112.858 185.834 113.47 186.842 113.902C187.886 114.334 189.002 114.55 190.19 114.55ZM216.145 124V86.2H226.621L245.845 109.204H240.985V86.2H253.405V124H242.929L223.705 100.996H228.565V124H216.145ZM255.442 124L271.966 86.2H284.494L301.018 124H287.842L275.638 92.248H280.606L268.402 124H255.442ZM265.27 117.412L268.51 108.232H285.898L289.138 117.412H265.27ZM303.051 124V86.2H315.795V114.118H332.859V124H303.051ZM336.379 124V86.2H349.123V124H336.379ZM353.908 124V116.17L374.968 91.654L376.534 96.082H354.448V86.2H387.766V94.03L366.706 118.546L365.14 114.118H388.63V124H353.908ZM403.995 100.24H420.843V109.42H403.995V100.24ZM404.859 114.388H423.759V124H392.331V86.2H423.057V95.812H404.859V114.388ZM428.665 124V86.2H447.295C451.507 86.2 455.215 86.974 458.419 88.522C461.623 90.034 464.125 92.194 465.925 95.002C467.725 97.81 468.625 101.158 468.625 105.046C468.625 108.97 467.725 112.354 465.925 115.198C464.125 118.006 461.623 120.184 458.419 121.732C455.215 123.244 451.507 124 447.295 124H428.665ZM441.409 114.064H446.755C448.555 114.064 450.121 113.722 451.453 113.038C452.821 112.354 453.883 111.346 454.639 110.014C455.395 108.646 455.773 106.99 455.773 105.046C455.773 103.138 455.395 101.518 454.639 100.186C453.883 98.854 452.821 97.846 451.453 97.162C450.121 96.478 448.555 96.136 446.755 96.136H441.409V114.064Z" fill="#F9FBFF"/>
</g>
<defs>
<clipPath id="clip0_0_222">
<rect width="484.615" height="200" fill="white" transform="translate(0.629623)"/>
</clipPath>
</defs>
</svg>
